<svg xmlns="http://www.w3.org/2000/svg" width="512" height="512" viewBox="0 0 307.02 307.02">
  <g fill="#FFF">
    <path d="M142.092 195.797c-1.107 0-1.825.076-2.168.162v6.073h2.079c2.361 0 3.816-1.259 3.816-3.169.005-2.082-1.45-3.066-3.727-3.066zM113.414 166.669c-1.435 0-2.354.107-2.798.214v7.83h2.684c3.052 0 4.931-1.62 4.931-4.072.004-2.692-1.875-3.972-4.817-3.972zM163.336 166.624c-4.484 0-6.876 4.158-6.876 9.267 0 5.078 2.539 9.085 6.876 9.085 4.377 0 6.84-4.088 6.84-9.268 0-4.672-2.311-9.084-6.84-9.084zM137.438 184.98c4.372 0 6.837-4.088 6.837-9.268 0-4.666-2.313-9.084-6.837-9.084-4.486 0-6.873 4.164-6.873 9.268-.005 5.073 2.526 9.084 6.873 9.084z"/>
    <path d="M210.927 52.352C206.823 22.787 182.678 0 153.51 0c-32.034 0-58.107 27.472-58.107 61.233 0 9.227 7.092 16.702 15.849 16.702s15.846-7.475 15.846-16.702c0-15.343 11.85-27.835 26.413-27.835 14.568 0 26.416 12.487 26.416 27.835-.341 23.25-54.599 32.334-54.599 32.334l.025.056c-15.546 3.065-27.34 17.613-27.34 35.183v142.379c0 19.794 14.949 35.835 33.397 35.835h46.799c17.22 0 31.234-14.03 33.042-31.986l.057.112v-.701c.096-1.087.31-2.143.31-3.26V128.806c0-1.117-.214-2.174-.31-3.266V64.447c.192-1.041.31-2.105.31-3.209 0-2.125-.112-4.22-.31-6.296V52.52c0-.001-.138-.07-.381-.168zm-73.344 110.641c7.208 0 11.471 5.474 11.471 12.573 0 8.307-5.037 13.05-11.839 13.05-7.02 0-11.436-5.367-11.436-12.613 0-7.648 4.816-13.01 11.804-13.01zm-26.238 49.794c-2.049 0-4.159-.559-5.21-1.229l.795-2.904c1.114.654 2.851 1.233 4.644 1.233 2.227 0 3.474-1.056 3.474-2.625 0-1.452-.968-2.306-3.385-3.194-3.191-1.132-5.215-2.818-5.215-5.575 0-3.153 2.615-5.52 6.807-5.52 2.075 0 3.588.457 4.581.959l-.828 2.839a8.216 8.216 0 0 0-3.842-.93c-2.227 0-3.161 1.174-3.161 2.321 0 1.473 1.107 2.153 3.672 3.148 3.331 1.254 4.923 2.935 4.923 5.707.009 3.094-2.329 5.77-7.255 5.77zm6.002-30.427c-.733-3.229-1.874-4.255-4.445-4.337h-2.285v10.187h-4.481v-24.415c1.727-.324 4.228-.548 6.837-.548 3.567 0 5.959.589 7.65 1.98 1.361 1.147 2.138 2.869 2.138 4.996 0 3.21-2.176 5.373-4.524 6.186v.102c1.798.67 2.864 2.396 3.458 4.788.805 3.088 1.47 5.957 1.95 6.911h-4.634c-.377-.731-.999-2.757-1.664-5.85zm16.024 30.128h-11.596v-19.21h11.164v2.884h-7.658v4.956h7.239v2.844h-7.239v5.646h8.089v2.88zm13.052 0c-.292-.59-.769-2.144-1.285-4.53-.571-2.503-1.45-3.306-3.448-3.366h-1.762v7.901h-3.474v-18.921c1.341-.254 3.275-.426 5.299-.426 2.765 0 4.616.456 5.928 1.533 1.049.894 1.648 2.229 1.648 3.879 0 2.479-1.676 4.154-3.494 4.784v.091c1.392.519 2.214 1.839 2.676 3.697.62 2.396 1.135 4.621 1.508 5.362h-3.598v-.004zm14.76 0h-4.022l-6.208-19.21h3.821l2.615 8.754c.747 2.417 1.397 4.646 1.884 6.967h.061c.508-2.265 1.219-4.601 1.96-6.946l2.793-8.774h3.728l-6.632 19.209zm12.222 0h-3.499v-19.21h3.499v19.21zm-10.293-23.872c-7.018 0-11.433-5.367-11.433-12.613 0-7.647 4.821-13.01 11.804-13.01 7.205 0 11.471 5.474 11.471 12.573 0 8.307-5.037 13.05-11.842 13.05zm23.689 21.246c1.396 0 2.874-.294 3.813-.69l.569 2.763c-.823.396-2.646.853-4.981.853-6.094 0-9.791-3.808-9.791-9.678 0-6.328 4.413-10.136 10.283-10.136 2.301 0 3.92.492 4.631.853l-.73 2.783c-.914-.396-2.194-.742-3.758-.742-3.905 0-6.724 2.448-6.724 7.069-.005 4.245 2.448 6.925 6.688 6.925zm2.544-21.946l-3.311-10.583a124.73 124.73 0 0 1-2.498-9.638h-.071c-.112 3.239-.254 7.17-.447 10.552l-.548 9.963h-4.226l1.65-24.78h5.957l3.239 9.963a124.93 124.93 0 0 1 2.28 8.597h.106c.66-2.676 1.514-5.732 2.468-8.638l3.423-9.922h5.881l1.432 24.78h-4.408l-.477-10.104c-.147-3.199-.336-7.059-.295-10.41h-.111a132.152 132.152 0 0 1-2.945 9.49l-3.636 10.74h-3.464v-.01zm16.432 24.572h-11.588v-19.21h11.161v2.884h-7.662v4.956h7.235v2.844h-7.235v5.646h8.089v2.88z"/>
  </g>
</svg>
